<?xml version="1.0" encoding="utf-8"?>
<!-- Generator: Adobe Illustrator 18.0.0, SVG Export Plug-In . SVG Version: 6.00 Build 0)  -->
<!DOCTYPE svg PUBLIC "-//W3C//DTD SVG 1.1//EN" "http://www.w3.org/Graphics/SVG/1.1/DTD/svg11.dtd">
<svg version="1.1" id="Layer_1" xmlns="http://www.w3.org/2000/svg" xmlns:xlink="http://www.w3.org/1999/xlink" x="0px" y="0px"
	 viewBox="0 0 595.3 841.9" enable-background="new 0 0 595.3 841.9" xml:space="preserve">
<g id="gridlines">
	<line fill="none" stroke="#000000" stroke-width="0.75" stroke-miterlimit="10" x1="0" y1="718.6" x2="595.3" y2="123.3"/>
	<line fill="none" stroke="#000000" stroke-width="0.75" stroke-miterlimit="10" x1="595.3" y1="718.6" x2="0" y2="123.3"/>
	<line fill="none" stroke="#000000" stroke-width="0.25" stroke-miterlimit="10" x1="0" y1="123.3" x2="595.3" y2="123.3"/>
	<line fill="none" stroke="#000000" stroke-width="0.25" stroke-miterlimit="10" x1="0" y1="148.1" x2="595.3" y2="148.1"/>
	<line fill="none" stroke="#000000" stroke-width="0.25" stroke-miterlimit="10" x1="0" y1="172.9" x2="595.3" y2="172.9"/>
	<line fill="none" stroke="#000000" stroke-width="0.25" stroke-miterlimit="10" x1="0" y1="197.7" x2="595.3" y2="197.7"/>
	<line fill="none" stroke="#000000" stroke-width="0.25" stroke-miterlimit="10" x1="0" y1="222.5" x2="595.3" y2="222.5"/>
	<line fill="none" stroke="#000000" stroke-width="0.25" stroke-miterlimit="10" x1="0" y1="247.3" x2="595.3" y2="247.3"/>
	<line fill="none" stroke="#000000" stroke-width="0.25" stroke-miterlimit="10" x1="0" y1="272.1" x2="595.3" y2="272.1"/>
	<line fill="none" stroke="#000000" stroke-width="0.25" stroke-miterlimit="10" x1="0" y1="296.9" x2="595.3" y2="296.9"/>
	<line fill="none" stroke="#000000" stroke-width="0.75" stroke-miterlimit="10" x1="0" y1="321.7" x2="595.3" y2="321.7"/>
	<line fill="none" stroke="#000000" stroke-width="0.25" stroke-miterlimit="10" x1="0" y1="346.5" x2="595.3" y2="346.5"/>
	<line fill="none" stroke="#000000" stroke-width="0.25" stroke-miterlimit="10" x1="0" y1="371.3" x2="595.3" y2="371.3"/>
	<line fill="none" stroke="#000000" stroke-width="0.25" stroke-miterlimit="10" x1="0" y1="396.1" x2="595.3" y2="396.1"/>
	<line fill="none" stroke="#000000" stroke-width="0.75" stroke-miterlimit="10" x1="0" y1="420.9" x2="595.3" y2="420.9"/>
	<line fill="none" stroke="#000000" stroke-width="0.25" stroke-miterlimit="10" x1="0" y1="445.7" x2="595.3" y2="445.7"/>
	<line fill="none" stroke="#000000" stroke-width="0.25" stroke-miterlimit="10" x1="0" y1="445.7" x2="595.3" y2="445.7"/>
	<line fill="none" stroke="#000000" stroke-width="0.25" stroke-miterlimit="10" x1="0" y1="470.6" x2="595.3" y2="470.6"/>
	<line fill="none" stroke="#000000" stroke-width="0.25" stroke-miterlimit="10" x1="0" y1="495.4" x2="595.3" y2="495.4"/>
	<line fill="none" stroke="#000000" stroke-width="0.75" stroke-miterlimit="10" x1="0" y1="520.2" x2="595.3" y2="520.2"/>
	<line fill="none" stroke="#000000" stroke-width="0.25" stroke-miterlimit="10" x1="0" y1="545" x2="595.3" y2="545"/>
	<line fill="none" stroke="#000000" stroke-width="0.25" stroke-miterlimit="10" x1="0" y1="569.8" x2="595.3" y2="569.8"/>
	<line fill="none" stroke="#000000" stroke-width="0.25" stroke-miterlimit="10" x1="0" y1="594.6" x2="595.3" y2="594.6"/>
	<line fill="none" stroke="#000000" stroke-width="0.25" stroke-miterlimit="10" x1="0" y1="619.4" x2="595.3" y2="619.4"/>
	<line fill="none" stroke="#000000" stroke-width="0.25" stroke-miterlimit="10" x1="0" y1="644.2" x2="595.3" y2="644.2"/>
	<line fill="none" stroke="#000000" stroke-width="0.25" stroke-miterlimit="10" x1="0" y1="669" x2="595.3" y2="669"/>
	<line fill="none" stroke="#000000" stroke-width="0.25" stroke-miterlimit="10" x1="0" y1="693.8" x2="595.3" y2="693.8"/>
	<line fill="none" stroke="#000000" stroke-width="0.25" stroke-miterlimit="10" x1="0" y1="718.6" x2="595.3" y2="718.6"/>
	<line fill="none" stroke="#000000" stroke-width="0.25" stroke-miterlimit="10" x1="0" y1="718.6" x2="0" y2="123.3"/>
	<line fill="none" stroke="#000000" stroke-width="0.25" stroke-miterlimit="10" x1="24.8" y1="718.6" x2="24.8" y2="123.3"/>
	<line fill="none" stroke="#000000" stroke-width="0.25" stroke-miterlimit="10" x1="49.6" y1="718.6" x2="49.6" y2="123.3"/>
	<line fill="none" stroke="#000000" stroke-width="0.25" stroke-miterlimit="10" x1="74.4" y1="718.6" x2="74.4" y2="123.3"/>
	<line fill="none" stroke="#000000" stroke-width="0.25" stroke-miterlimit="10" x1="99.2" y1="718.6" x2="99.2" y2="123.3"/>
	<line fill="none" stroke="#000000" stroke-width="0.25" stroke-miterlimit="10" x1="124" y1="718.6" x2="124" y2="123.3"/>
	<line fill="none" stroke="#000000" stroke-width="0.25" stroke-miterlimit="10" x1="148.8" y1="718.6" x2="148.8" y2="123.3"/>
	<line fill="none" stroke="#000000" stroke-width="0.25" stroke-miterlimit="10" x1="173.6" y1="718.6" x2="173.6" y2="123.3"/>
	<line fill="none" stroke="#000000" stroke-width="0.75" stroke-miterlimit="10" x1="198.4" y1="718.6" x2="198.4" y2="123.3"/>
	<line fill="none" stroke="#000000" stroke-width="0.25" stroke-miterlimit="10" x1="223.2" y1="718.6" x2="223.2" y2="123.3"/>
	<line fill="none" stroke="#000000" stroke-width="0.25" stroke-miterlimit="10" x1="248" y1="718.6" x2="248" y2="123.3"/>
	<line fill="none" stroke="#000000" stroke-width="0.25" stroke-miterlimit="10" x1="272.8" y1="718.6" x2="272.8" y2="123.3"/>
	<line fill="none" stroke="#000000" stroke-width="0.75" stroke-miterlimit="10" x1="297.6" y1="718.6" x2="297.6" y2="123.3"/>
	<line fill="none" stroke="#000000" stroke-width="0.25" stroke-miterlimit="10" x1="322.4" y1="718.6" x2="322.4" y2="123.3"/>
	<line fill="none" stroke="#000000" stroke-width="0.25" stroke-miterlimit="10" x1="322.4" y1="718.6" x2="322.4" y2="123.3"/>
	<line fill="none" stroke="#000000" stroke-width="0.25" stroke-miterlimit="10" x1="347.2" y1="718.6" x2="347.2" y2="123.3"/>
	<line fill="none" stroke="#000000" stroke-width="0.25" stroke-miterlimit="10" x1="372.1" y1="718.6" x2="372.1" y2="123.3"/>
	<line fill="none" stroke="#000000" stroke-width="0.75" stroke-miterlimit="10" x1="396.9" y1="718.6" x2="396.9" y2="123.3"/>
	<line fill="none" stroke="#000000" stroke-width="0.25" stroke-miterlimit="10" x1="421.7" y1="718.6" x2="421.7" y2="123.3"/>
	<line fill="none" stroke="#000000" stroke-width="0.25" stroke-miterlimit="10" x1="446.5" y1="718.6" x2="446.5" y2="123.3"/>
	<line fill="none" stroke="#000000" stroke-width="0.25" stroke-miterlimit="10" x1="471.3" y1="718.6" x2="471.3" y2="123.3"/>
	<line fill="none" stroke="#000000" stroke-width="0.25" stroke-miterlimit="10" x1="496.1" y1="718.6" x2="496.1" y2="123.3"/>
	<line fill="none" stroke="#000000" stroke-width="0.25" stroke-miterlimit="10" x1="520.9" y1="718.6" x2="520.9" y2="123.3"/>
	<line fill="none" stroke="#000000" stroke-width="0.25" stroke-miterlimit="10" x1="545.7" y1="718.6" x2="545.7" y2="123.3"/>
	<line fill="none" stroke="#000000" stroke-width="0.25" stroke-miterlimit="10" x1="570.5" y1="718.6" x2="570.5" y2="123.3"/>
	<line fill="none" stroke="#000000" stroke-width="0.25" stroke-miterlimit="10" x1="595.3" y1="718.6" x2="595.3" y2="123.3"/>
	<circle fill="none" stroke="#000000" stroke-width="0.75" stroke-miterlimit="10" cx="297.6" cy="420.9" r="248"/>
	<circle fill="none" stroke="#000000" stroke-width="0.75" stroke-miterlimit="10" cx="297.6" cy="420.9" r="124"/>
	<path fill="none" stroke="#000000" stroke-width="0.75" stroke-miterlimit="10" d="M74.4,247.3c0-24.8,24.8-49.6,49.6-49.6h347.2
		c24.8,0,49.6,24.8,49.6,49.6v347.2c0,24.8-24.8,49.6-49.6,49.6H124c-24.8,0-49.6-24.8-49.6-49.6V247.3z"/>
	<path fill="none" stroke="#000000" stroke-width="0.75" stroke-miterlimit="10" d="M124,222.5c0-24.8,24.8-49.6,49.6-49.6h248
		c24.8,0,49.6,24.8,49.6,49.6v396.9c0,24.8-24.8,49.6-49.6,49.6h-248c-24.8,0-49.6-24.8-49.6-49.6V222.5z"/>
	<path fill="none" stroke="#000000" stroke-width="0.75" stroke-miterlimit="10" d="M99.2,594.6c-24.8,0-49.6-24.8-49.6-49.6v-248
		c0-24.8,24.8-49.6,49.6-49.6h396.9c24.8,0,49.6,24.8,49.6,49.6v248c0,24.8-24.8,49.6-49.6,49.6H99.2z"/>
</g>
<path fill="#444444" d="M297.6,173.7c24.8,0,46,8.8,63.5,26.3s26.3,38.8,26.3,63.5c0,20.7-6.3,39.1-19,55.2
	c-12.6,16.1-28.8,26.7-48.4,31.7v271.5c25-2.9,48.5-10.1,70.7-21.6c22.2-11.7,41.3-26.3,57.2-44c16-17.6,28.6-38.2,37.9-61.8
	s14-48.1,14-73.6c0-6.2,2.2-11.4,6.6-15.9c4.3-4.3,9.7-6.6,15.9-6.6s11.4,2.2,15.9,6.6c4.3,4.3,6.6,9.7,6.6,15.9
	c0,33.5-6.5,65.6-19.6,96.1c-13,30.6-30.6,56.8-52.6,78.9c-22.1,22.1-48.3,39.6-78.9,52.6c-30.4,13-62.5,19.6-96.1,19.6
	c-33.5,0-65.6-6.5-96.1-19.6c-30.4-13-56.8-30.6-78.9-52.6s-39.6-48.3-52.6-78.9c-13-30.6-19.7-62.6-19.7-96.1
	c0-6.2,2.2-11.4,6.6-15.9c4.3-4.3,9.7-6.6,15.9-6.6c6.2,0,11.4,2.2,15.9,6.6c4.3,4.3,6.6,9.7,6.6,15.9c0,25.5,4.7,50,14,73.6
	c9.3,23.6,22,44.2,37.9,61.8c16,17.6,35,32.4,57.2,44c22.2,11.7,45.8,18.9,70.7,21.6V350.6c-19.7-5-35.8-15.6-48.4-31.7
	s-19-34.5-19-55.2c0-24.8,8.8-46,26.3-63.5S272.8,173.7,297.6,173.7L297.6,173.7z M297.6,218.7c-12.4,0-23,4.3-31.8,13.2
	c-8.8,8.8-13.2,19.3-13.2,31.8c0,12.4,4.3,23,13.2,31.8c8.8,8.8,19.3,13.2,31.8,13.2c12.4,0,23-4.3,31.8-13.2
	c8.8-8.8,13.2-19.3,13.2-31.8c0-12.4-4.3-23-13.2-31.8C320.6,223.1,310,218.7,297.6,218.7z"/>
</svg>
