<?xml version="1.0" encoding="utf-8"?>
<!-- Generator: Adobe Illustrator 18.0.0, SVG Export Plug-In . SVG Version: 6.00 Build 0)  -->
<!DOCTYPE svg PUBLIC "-//W3C//DTD SVG 1.1//EN" "http://www.w3.org/Graphics/SVG/1.1/DTD/svg11.dtd">
<svg version="1.1" id="Layer_1" xmlns="http://www.w3.org/2000/svg" xmlns:xlink="http://www.w3.org/1999/xlink" x="0px" y="0px"
	 viewBox="0 0 595.3 841.9" enable-background="new 0 0 595.3 841.9" xml:space="preserve">
<g id="gridlines">
	<line fill="none" stroke="#000000" stroke-width="0.75" stroke-miterlimit="10" x1="0" y1="718.6" x2="595.3" y2="123.3"/>
	<line fill="none" stroke="#000000" stroke-width="0.75" stroke-miterlimit="10" x1="595.3" y1="718.6" x2="0" y2="123.3"/>
	<line fill="none" stroke="#000000" stroke-width="0.25" stroke-miterlimit="10" x1="0" y1="123.3" x2="595.3" y2="123.3"/>
	<line fill="none" stroke="#000000" stroke-width="0.25" stroke-miterlimit="10" x1="0" y1="148.1" x2="595.3" y2="148.1"/>
	<line fill="none" stroke="#000000" stroke-width="0.25" stroke-miterlimit="10" x1="0" y1="172.9" x2="595.3" y2="172.9"/>
	<line fill="none" stroke="#000000" stroke-width="0.25" stroke-miterlimit="10" x1="0" y1="197.7" x2="595.3" y2="197.7"/>
	<line fill="none" stroke="#000000" stroke-width="0.25" stroke-miterlimit="10" x1="0" y1="222.5" x2="595.3" y2="222.5"/>
	<line fill="none" stroke="#000000" stroke-width="0.25" stroke-miterlimit="10" x1="0" y1="247.3" x2="595.3" y2="247.3"/>
	<line fill="none" stroke="#000000" stroke-width="0.25" stroke-miterlimit="10" x1="0" y1="272.1" x2="595.3" y2="272.1"/>
	<line fill="none" stroke="#000000" stroke-width="0.25" stroke-miterlimit="10" x1="0" y1="296.9" x2="595.3" y2="296.9"/>
	<line fill="none" stroke="#000000" stroke-width="0.75" stroke-miterlimit="10" x1="0" y1="321.7" x2="595.3" y2="321.7"/>
	<line fill="none" stroke="#000000" stroke-width="0.25" stroke-miterlimit="10" x1="0" y1="346.5" x2="595.3" y2="346.5"/>
	<line fill="none" stroke="#000000" stroke-width="0.25" stroke-miterlimit="10" x1="0" y1="371.3" x2="595.3" y2="371.3"/>
	<line fill="none" stroke="#000000" stroke-width="0.25" stroke-miterlimit="10" x1="0" y1="396.1" x2="595.3" y2="396.1"/>
	<line fill="none" stroke="#000000" stroke-width="0.75" stroke-miterlimit="10" x1="0" y1="420.9" x2="595.3" y2="420.9"/>
	<line fill="none" stroke="#000000" stroke-width="0.25" stroke-miterlimit="10" x1="0" y1="445.7" x2="595.3" y2="445.7"/>
	<line fill="none" stroke="#000000" stroke-width="0.25" stroke-miterlimit="10" x1="0" y1="445.7" x2="595.3" y2="445.7"/>
	<line fill="none" stroke="#000000" stroke-width="0.25" stroke-miterlimit="10" x1="0" y1="470.6" x2="595.3" y2="470.6"/>
	<line fill="none" stroke="#000000" stroke-width="0.25" stroke-miterlimit="10" x1="0" y1="495.4" x2="595.3" y2="495.4"/>
	<line fill="none" stroke="#000000" stroke-width="0.75" stroke-miterlimit="10" x1="0" y1="520.2" x2="595.3" y2="520.2"/>
	<line fill="none" stroke="#000000" stroke-width="0.25" stroke-miterlimit="10" x1="0" y1="545" x2="595.3" y2="545"/>
	<line fill="none" stroke="#000000" stroke-width="0.25" stroke-miterlimit="10" x1="0" y1="569.8" x2="595.3" y2="569.8"/>
	<line fill="none" stroke="#000000" stroke-width="0.25" stroke-miterlimit="10" x1="0" y1="594.6" x2="595.3" y2="594.6"/>
	<line fill="none" stroke="#000000" stroke-width="0.25" stroke-miterlimit="10" x1="0" y1="619.4" x2="595.3" y2="619.4"/>
	<line fill="none" stroke="#000000" stroke-width="0.25" stroke-miterlimit="10" x1="0" y1="644.2" x2="595.3" y2="644.2"/>
	<line fill="none" stroke="#000000" stroke-width="0.25" stroke-miterlimit="10" x1="0" y1="669" x2="595.3" y2="669"/>
	<line fill="none" stroke="#000000" stroke-width="0.25" stroke-miterlimit="10" x1="0" y1="693.8" x2="595.3" y2="693.8"/>
	<line fill="none" stroke="#000000" stroke-width="0.25" stroke-miterlimit="10" x1="0" y1="718.6" x2="595.3" y2="718.6"/>
	<line fill="none" stroke="#000000" stroke-width="0.25" stroke-miterlimit="10" x1="0" y1="718.6" x2="0" y2="123.3"/>
	<line fill="none" stroke="#000000" stroke-width="0.25" stroke-miterlimit="10" x1="24.8" y1="718.6" x2="24.8" y2="123.3"/>
	<line fill="none" stroke="#000000" stroke-width="0.25" stroke-miterlimit="10" x1="49.6" y1="718.6" x2="49.6" y2="123.3"/>
	<line fill="none" stroke="#000000" stroke-width="0.25" stroke-miterlimit="10" x1="74.4" y1="718.6" x2="74.4" y2="123.3"/>
	<line fill="none" stroke="#000000" stroke-width="0.25" stroke-miterlimit="10" x1="99.2" y1="718.6" x2="99.2" y2="123.3"/>
	<line fill="none" stroke="#000000" stroke-width="0.25" stroke-miterlimit="10" x1="124" y1="718.6" x2="124" y2="123.3"/>
	<line fill="none" stroke="#000000" stroke-width="0.25" stroke-miterlimit="10" x1="148.8" y1="718.6" x2="148.8" y2="123.3"/>
	<line fill="none" stroke="#000000" stroke-width="0.25" stroke-miterlimit="10" x1="173.6" y1="718.6" x2="173.6" y2="123.3"/>
	<line fill="none" stroke="#000000" stroke-width="0.75" stroke-miterlimit="10" x1="198.4" y1="718.6" x2="198.4" y2="123.3"/>
	<line fill="none" stroke="#000000" stroke-width="0.25" stroke-miterlimit="10" x1="223.2" y1="718.6" x2="223.2" y2="123.3"/>
	<line fill="none" stroke="#000000" stroke-width="0.25" stroke-miterlimit="10" x1="248" y1="718.6" x2="248" y2="123.3"/>
	<line fill="none" stroke="#000000" stroke-width="0.25" stroke-miterlimit="10" x1="272.8" y1="718.6" x2="272.8" y2="123.3"/>
	<line fill="none" stroke="#000000" stroke-width="0.75" stroke-miterlimit="10" x1="297.6" y1="718.6" x2="297.6" y2="123.3"/>
	<line fill="none" stroke="#000000" stroke-width="0.25" stroke-miterlimit="10" x1="322.4" y1="718.6" x2="322.4" y2="123.3"/>
	<line fill="none" stroke="#000000" stroke-width="0.25" stroke-miterlimit="10" x1="322.4" y1="718.6" x2="322.4" y2="123.3"/>
	<line fill="none" stroke="#000000" stroke-width="0.25" stroke-miterlimit="10" x1="347.2" y1="718.6" x2="347.2" y2="123.3"/>
	<line fill="none" stroke="#000000" stroke-width="0.25" stroke-miterlimit="10" x1="372.1" y1="718.6" x2="372.1" y2="123.3"/>
	<line fill="none" stroke="#000000" stroke-width="0.75" stroke-miterlimit="10" x1="396.9" y1="718.6" x2="396.9" y2="123.3"/>
	<line fill="none" stroke="#000000" stroke-width="0.25" stroke-miterlimit="10" x1="421.7" y1="718.6" x2="421.7" y2="123.3"/>
	<line fill="none" stroke="#000000" stroke-width="0.25" stroke-miterlimit="10" x1="446.5" y1="718.6" x2="446.5" y2="123.3"/>
	<line fill="none" stroke="#000000" stroke-width="0.25" stroke-miterlimit="10" x1="471.3" y1="718.6" x2="471.3" y2="123.3"/>
	<line fill="none" stroke="#000000" stroke-width="0.25" stroke-miterlimit="10" x1="496.1" y1="718.6" x2="496.1" y2="123.3"/>
	<line fill="none" stroke="#000000" stroke-width="0.25" stroke-miterlimit="10" x1="520.9" y1="718.6" x2="520.9" y2="123.3"/>
	<line fill="none" stroke="#000000" stroke-width="0.25" stroke-miterlimit="10" x1="545.7" y1="718.6" x2="545.7" y2="123.3"/>
	<line fill="none" stroke="#000000" stroke-width="0.25" stroke-miterlimit="10" x1="570.5" y1="718.6" x2="570.5" y2="123.3"/>
	<line fill="none" stroke="#000000" stroke-width="0.25" stroke-miterlimit="10" x1="595.3" y1="718.6" x2="595.3" y2="123.3"/>
	<circle fill="none" stroke="#000000" stroke-width="0.75" stroke-miterlimit="10" cx="297.6" cy="420.9" r="248"/>
	<circle fill="none" stroke="#000000" stroke-width="0.75" stroke-miterlimit="10" cx="297.6" cy="420.9" r="124"/>
	<path fill="none" stroke="#000000" stroke-width="0.75" stroke-miterlimit="10" d="M74.4,247.3c0-24.8,24.8-49.6,49.6-49.6h347.2
		c24.8,0,49.6,24.8,49.6,49.6v347.2c0,24.8-24.8,49.6-49.6,49.6H124c-24.8,0-49.6-24.8-49.6-49.6V247.3z"/>
	<path fill="none" stroke="#000000" stroke-width="0.75" stroke-miterlimit="10" d="M124,222.5c0-24.8,24.8-49.6,49.6-49.6h248
		c24.8,0,49.6,24.8,49.6,49.6v396.9c0,24.8-24.8,49.6-49.6,49.6h-248c-24.8,0-49.6-24.8-49.6-49.6V222.5z"/>
	<path fill="none" stroke="#000000" stroke-width="0.75" stroke-miterlimit="10" d="M99.2,594.6c-24.8,0-49.6-24.8-49.6-49.6v-248
		c0-24.8,24.8-49.6,49.6-49.6h396.9c24.8,0,49.6,24.8,49.6,49.6v248c0,24.8-24.8,49.6-49.6,49.6H99.2z"/>
</g>
<path fill="#444444" d="M174.6,234.7h248.3l124.1,124.1V545c0,17.1-6.1,31.8-18.2,43.9s-26.7,18.2-43.9,18.2H112.5
	c-17.1,0-31.8-6.1-43.9-18.2S50.4,562.2,50.4,545V358.9L174.6,234.7z M505.5,545V400.2h-90.8c-9.2,23.9-24.4,43.7-45.8,59.3
	c-21.4,15.7-44.8,23.5-70.2,23.5c-16.9,0-33.4-3.6-49.3-10.8c-15.9-7.3-29.8-17.1-41.7-29.7c-11.9-12.5-20.7-26.7-26.7-42.2H91.9
	V545c0,5.6,2,10.5,6,14.5c4,4.1,8.9,6.1,14.7,6.1h372.3c5.8,0,10.6-2.1,14.6-6.1C503.5,555.6,505.5,550.8,505.5,545L505.5,545z
	 M488.5,358.9l-81.9-82.8H191.6l-82.8,82.8h107c0,13.7,3.7,26.9,10.9,39.6c7.4,12.7,17.4,23.1,30.3,31.1
	c12.9,8.1,26.7,12.1,41.4,12.1c14.7,0,28.5-4,41.4-12.1c12.9-8.1,23-18.4,30.3-31.1c7.4-12.7,10.9-25.9,10.9-39.6H488.5z"/>
</svg>
