<?xml version="1.0" encoding="utf-8"?>
<!-- Generator: Adobe Illustrator 18.0.0, SVG Export Plug-In . SVG Version: 6.00 Build 0)  -->
<!DOCTYPE svg PUBLIC "-//W3C//DTD SVG 1.1//EN" "http://www.w3.org/Graphics/SVG/1.1/DTD/svg11.dtd">
<svg version="1.1" id="Layer_1" xmlns="http://www.w3.org/2000/svg" xmlns:xlink="http://www.w3.org/1999/xlink" x="0px" y="0px"
	 viewBox="0 0 595.3 841.9" enable-background="new 0 0 595.3 841.9" xml:space="preserve">
<g id="gridlines">
	<line fill="none" stroke="#000000" stroke-width="0.75" stroke-miterlimit="10" x1="0" y1="718.6" x2="595.3" y2="123.3"/>
	<line fill="none" stroke="#000000" stroke-width="0.75" stroke-miterlimit="10" x1="595.3" y1="718.6" x2="0" y2="123.3"/>
	<line fill="none" stroke="#000000" stroke-width="0.25" stroke-miterlimit="10" x1="0" y1="123.3" x2="595.3" y2="123.3"/>
	<line fill="none" stroke="#000000" stroke-width="0.25" stroke-miterlimit="10" x1="0" y1="148.1" x2="595.3" y2="148.1"/>
	<line fill="none" stroke="#000000" stroke-width="0.25" stroke-miterlimit="10" x1="0" y1="172.9" x2="595.3" y2="172.9"/>
	<line fill="none" stroke="#000000" stroke-width="0.25" stroke-miterlimit="10" x1="0" y1="197.7" x2="595.3" y2="197.7"/>
	<line fill="none" stroke="#000000" stroke-width="0.25" stroke-miterlimit="10" x1="0" y1="222.5" x2="595.3" y2="222.5"/>
	<line fill="none" stroke="#000000" stroke-width="0.25" stroke-miterlimit="10" x1="0" y1="247.3" x2="595.3" y2="247.3"/>
	<line fill="none" stroke="#000000" stroke-width="0.25" stroke-miterlimit="10" x1="0" y1="272.1" x2="595.3" y2="272.1"/>
	<line fill="none" stroke="#000000" stroke-width="0.25" stroke-miterlimit="10" x1="0" y1="296.9" x2="595.3" y2="296.9"/>
	<line fill="none" stroke="#000000" stroke-width="0.75" stroke-miterlimit="10" x1="0" y1="321.7" x2="595.3" y2="321.7"/>
	<line fill="none" stroke="#000000" stroke-width="0.25" stroke-miterlimit="10" x1="0" y1="346.5" x2="595.3" y2="346.5"/>
	<line fill="none" stroke="#000000" stroke-width="0.25" stroke-miterlimit="10" x1="0" y1="371.3" x2="595.3" y2="371.3"/>
	<line fill="none" stroke="#000000" stroke-width="0.25" stroke-miterlimit="10" x1="0" y1="396.1" x2="595.3" y2="396.1"/>
	<line fill="none" stroke="#000000" stroke-width="0.75" stroke-miterlimit="10" x1="0" y1="420.9" x2="595.3" y2="420.9"/>
	<line fill="none" stroke="#000000" stroke-width="0.25" stroke-miterlimit="10" x1="0" y1="445.7" x2="595.3" y2="445.7"/>
	<line fill="none" stroke="#000000" stroke-width="0.25" stroke-miterlimit="10" x1="0" y1="445.7" x2="595.3" y2="445.7"/>
	<line fill="none" stroke="#000000" stroke-width="0.25" stroke-miterlimit="10" x1="0" y1="470.6" x2="595.3" y2="470.6"/>
	<line fill="none" stroke="#000000" stroke-width="0.25" stroke-miterlimit="10" x1="0" y1="495.4" x2="595.3" y2="495.4"/>
	<line fill="none" stroke="#000000" stroke-width="0.75" stroke-miterlimit="10" x1="0" y1="520.2" x2="595.3" y2="520.2"/>
	<line fill="none" stroke="#000000" stroke-width="0.25" stroke-miterlimit="10" x1="0" y1="545" x2="595.3" y2="545"/>
	<line fill="none" stroke="#000000" stroke-width="0.25" stroke-miterlimit="10" x1="0" y1="569.8" x2="595.3" y2="569.8"/>
	<line fill="none" stroke="#000000" stroke-width="0.25" stroke-miterlimit="10" x1="0" y1="594.6" x2="595.3" y2="594.6"/>
	<line fill="none" stroke="#000000" stroke-width="0.25" stroke-miterlimit="10" x1="0" y1="619.4" x2="595.3" y2="619.4"/>
	<line fill="none" stroke="#000000" stroke-width="0.25" stroke-miterlimit="10" x1="0" y1="644.2" x2="595.3" y2="644.2"/>
	<line fill="none" stroke="#000000" stroke-width="0.25" stroke-miterlimit="10" x1="0" y1="669" x2="595.3" y2="669"/>
	<line fill="none" stroke="#000000" stroke-width="0.25" stroke-miterlimit="10" x1="0" y1="693.8" x2="595.3" y2="693.8"/>
	<line fill="none" stroke="#000000" stroke-width="0.25" stroke-miterlimit="10" x1="0" y1="718.6" x2="595.3" y2="718.6"/>
	<line fill="none" stroke="#000000" stroke-width="0.25" stroke-miterlimit="10" x1="0" y1="718.6" x2="0" y2="123.3"/>
	<line fill="none" stroke="#000000" stroke-width="0.25" stroke-miterlimit="10" x1="24.8" y1="718.6" x2="24.8" y2="123.3"/>
	<line fill="none" stroke="#000000" stroke-width="0.25" stroke-miterlimit="10" x1="49.6" y1="718.6" x2="49.6" y2="123.3"/>
	<line fill="none" stroke="#000000" stroke-width="0.25" stroke-miterlimit="10" x1="74.4" y1="718.6" x2="74.4" y2="123.3"/>
	<line fill="none" stroke="#000000" stroke-width="0.25" stroke-miterlimit="10" x1="99.2" y1="718.6" x2="99.2" y2="123.3"/>
	<line fill="none" stroke="#000000" stroke-width="0.25" stroke-miterlimit="10" x1="124" y1="718.6" x2="124" y2="123.3"/>
	<line fill="none" stroke="#000000" stroke-width="0.25" stroke-miterlimit="10" x1="148.8" y1="718.6" x2="148.8" y2="123.3"/>
	<line fill="none" stroke="#000000" stroke-width="0.25" stroke-miterlimit="10" x1="173.6" y1="718.6" x2="173.6" y2="123.3"/>
	<line fill="none" stroke="#000000" stroke-width="0.75" stroke-miterlimit="10" x1="198.4" y1="718.6" x2="198.4" y2="123.3"/>
	<line fill="none" stroke="#000000" stroke-width="0.25" stroke-miterlimit="10" x1="223.2" y1="718.6" x2="223.2" y2="123.3"/>
	<line fill="none" stroke="#000000" stroke-width="0.25" stroke-miterlimit="10" x1="248" y1="718.6" x2="248" y2="123.3"/>
	<line fill="none" stroke="#000000" stroke-width="0.25" stroke-miterlimit="10" x1="272.8" y1="718.6" x2="272.8" y2="123.3"/>
	<line fill="none" stroke="#000000" stroke-width="0.75" stroke-miterlimit="10" x1="297.6" y1="718.6" x2="297.6" y2="123.3"/>
	<line fill="none" stroke="#000000" stroke-width="0.25" stroke-miterlimit="10" x1="322.4" y1="718.6" x2="322.4" y2="123.3"/>
	<line fill="none" stroke="#000000" stroke-width="0.25" stroke-miterlimit="10" x1="322.4" y1="718.6" x2="322.4" y2="123.3"/>
	<line fill="none" stroke="#000000" stroke-width="0.25" stroke-miterlimit="10" x1="347.2" y1="718.6" x2="347.2" y2="123.3"/>
	<line fill="none" stroke="#000000" stroke-width="0.25" stroke-miterlimit="10" x1="372.1" y1="718.6" x2="372.1" y2="123.3"/>
	<line fill="none" stroke="#000000" stroke-width="0.75" stroke-miterlimit="10" x1="396.9" y1="718.6" x2="396.9" y2="123.3"/>
	<line fill="none" stroke="#000000" stroke-width="0.25" stroke-miterlimit="10" x1="421.7" y1="718.6" x2="421.7" y2="123.3"/>
	<line fill="none" stroke="#000000" stroke-width="0.25" stroke-miterlimit="10" x1="446.5" y1="718.6" x2="446.5" y2="123.3"/>
	<line fill="none" stroke="#000000" stroke-width="0.25" stroke-miterlimit="10" x1="471.3" y1="718.6" x2="471.3" y2="123.3"/>
	<line fill="none" stroke="#000000" stroke-width="0.25" stroke-miterlimit="10" x1="496.1" y1="718.6" x2="496.1" y2="123.3"/>
	<line fill="none" stroke="#000000" stroke-width="0.25" stroke-miterlimit="10" x1="520.9" y1="718.6" x2="520.9" y2="123.3"/>
	<line fill="none" stroke="#000000" stroke-width="0.25" stroke-miterlimit="10" x1="545.7" y1="718.6" x2="545.7" y2="123.3"/>
	<line fill="none" stroke="#000000" stroke-width="0.25" stroke-miterlimit="10" x1="570.5" y1="718.6" x2="570.5" y2="123.3"/>
	<line fill="none" stroke="#000000" stroke-width="0.25" stroke-miterlimit="10" x1="595.3" y1="718.6" x2="595.3" y2="123.3"/>
	<circle fill="none" stroke="#000000" stroke-width="0.75" stroke-miterlimit="10" cx="297.6" cy="420.9" r="248"/>
	<circle fill="none" stroke="#000000" stroke-width="0.75" stroke-miterlimit="10" cx="297.6" cy="420.9" r="124"/>
	<path fill="none" stroke="#000000" stroke-width="0.75" stroke-miterlimit="10" d="M74.4,247.3c0-24.8,24.8-49.6,49.6-49.6h347.2
		c24.8,0,49.6,24.8,49.6,49.6v347.2c0,24.8-24.8,49.6-49.6,49.6H124c-24.8,0-49.6-24.8-49.6-49.6V247.3z"/>
	<path fill="none" stroke="#000000" stroke-width="0.75" stroke-miterlimit="10" d="M124,222.5c0-24.8,24.8-49.6,49.6-49.6h248
		c24.8,0,49.6,24.8,49.6,49.6v396.9c0,24.8-24.8,49.6-49.6,49.6h-248c-24.8,0-49.6-24.8-49.6-49.6V222.5z"/>
	<path fill="none" stroke="#000000" stroke-width="0.75" stroke-miterlimit="10" d="M99.2,594.6c-24.8,0-49.6-24.8-49.6-49.6v-248
		c0-24.8,24.8-49.6,49.6-49.6h396.9c24.8,0,49.6,24.8,49.6,49.6v248c0,24.8-24.8,49.6-49.6,49.6H99.2z"/>
</g>
<path fill="#444444" d="M252.7,198.4h89.8c18.6,0,34.4,6.6,47.6,19.5c13.1,13,19.7,28.8,19.7,47.2v22.3h67.4
	c18.6,0,34.4,6.6,47.6,19.5c13.1,13,19.7,28.8,19.7,47.2v222.6c0,18.4-6.6,34.1-19.7,47.2c-13.1,13-29.1,19.5-47.6,19.5H118
	c-18.6,0-34.4-6.6-47.6-19.5c-13.1-13-19.7-28.8-19.7-47.2V354.2c0-18.4,6.6-34.1,19.7-47.2c13.1-13,29.1-19.5,47.6-19.5h67.4v-22.3
	c0-18.4,6.6-34.1,19.7-47.2S234.2,198.4,252.7,198.4z M140.5,599V331.9H118c-6.2,0-11.5,2.1-15.8,6.6c-4.3,4.3-6.6,9.6-6.6,15.7
	v222.6c0,6.1,2.2,11.4,6.6,15.7c4.3,4.3,9.7,6.6,15.8,6.6L140.5,599L140.5,599z M409.9,599V331.9H185.4v267.2h224.5V599z
	 M477.2,331.9h-22.5v267.2h22.5c6.2,0,11.5-2.1,15.8-6.6c4.3-4.3,6.6-9.6,6.6-15.7V354.3c0-6.1-2.2-11.4-6.6-15.7
	C488.8,334.1,483.5,331.9,477.2,331.9z M342.5,242.9h-89.8c-6.2,0-11.5,2.1-15.8,6.6c-4.3,4.3-6.6,9.6-6.6,15.7v22.3H365v-22.3
	c0-6.1-2.2-11.4-6.6-15.7C353.9,245.1,348.7,242.9,342.5,242.9z"/>
</svg>
